<svg xmlns="http://www.w3.org/2000/svg" viewBox="0 0 512 512" style="enable-background:new 0 0 512 512" xml:space="preserve"><path style="fill:#b0e046" d="M267.263 167.286c0-33.867-19.51-63.164-47.893-77.311a66.946 66.946 0 0 0 1.678-14.875c0-37.012-30.006-67.017-67.017-67.017S87.018 38.089 87.018 75.1c0 4.24.411 8.38 1.162 12.402-25.225 2.189-45.027 23.332-45.027 49.128 0 17.321 8.943 32.535 22.448 41.339a79.153 79.153 0 0 0-2.951 21.412c0 43.739 35.458 79.198 79.196 79.198 23.979 0 45.444-10.674 59.967-27.508 37.59-9.342 65.45-43.304 65.45-83.785z"/><path style="fill:#2da555" d="M132.351 464.722c0-13.912 7.254-26.123 18.181-33.078-6.838-20.796-26.395-35.813-49.48-35.813-14.238 0-27.135 5.714-36.543 14.972-5.042-27.947-27.917-49.68-56.426-52.994v146.106h152.783a30.61 30.61 0 0 0 4.99-.416c-18.949-2.754-33.505-19.064-33.505-38.777z"/><g style="opacity:.1"><path style="fill:#231f20" d="M8.084 357.808v146.108h25.519V366.428a64.638 64.638 0 0 0-25.519-8.62z"/></g><path style="fill:#36cc6b" d="M503.916 399.139c-7.044-3.504-14.964-5.51-23.367-5.51a52.542 52.542 0 0 0-17.524 2.999c-1.016-45.59-38.265-82.237-84.097-82.237-41.337 0-75.689 29.819-82.779 69.115-12.164-11.971-28.842-19.36-47.255-19.36-35.657 0-64.826 27.7-67.198 62.757-3.242-.87-6.636-1.375-10.152-1.375-21.646 0-39.193 17.548-39.193 39.195 0 21.645 17.547 39.193 39.193 39.193h332.372V399.139z"/><g style="opacity:.1"><path style="fill:#231f20" d="M171.149 435.203a5.387 5.387 0 0 0 1.381-6.242 5.4 5.4 0 0 0-5.551-3.17c-19.742 2.305-34.627 19.041-34.627 38.931 0 19.889 14.886 36.626 34.627 38.929a5.39 5.39 0 0 0 4.17-9.412c-8.541-7.464-13.439-18.222-13.439-29.518 0-11.297 4.898-22.056 13.439-29.518zM237.758 369.383a5.39 5.39 0 0 0-6.291-2.937c-25.355 6.826-44.578 27.913-48.972 53.72a5.391 5.391 0 0 0 6.412 6.182 38.717 38.717 0 0 1 12.75-.514c2.902.379 5.574-1.641 6.014-4.535 2.771-18.223 13.074-34.704 28.265-45.217a5.389 5.389 0 0 0 1.822-6.699z"/></g><path style="fill:#ffa233" d="M383.983 128.017c7.216 7.218 17.187 11.682 28.2 11.682 22.027 0 39.884-17.856 39.884-39.883 0-22.029-17.856-39.884-39.884-39.884-22.026 0-39.882 17.855-39.882 39.884 0 11.012 4.463 20.983 11.682 28.201"/><path style="fill:#85c8eb" d="M409.996 258.655h12.2c11.446 0 20.72-9.276 20.72-20.72 0-3.844-1.063-7.429-2.889-10.514h43.169c11.446 0 20.72-9.277 20.72-20.721 0-11.445-9.273-20.721-20.72-20.721h-97.194c-11.444 0-20.72 9.275-20.72 20.721 0 3.843 1.061 7.429 2.887 10.514h-43.166c-11.444 0-20.723 9.276-20.723 20.721 0 11.443 9.277 20.72 20.723 20.72h59.125"/><path style="fill:#231f20" d="M412.183 147.784c-12.813 0-24.857-4.99-33.917-14.05-9.06-9.058-14.049-21.104-14.049-33.917 0-26.449 21.518-47.968 47.966-47.968 26.449 0 47.968 21.519 47.968 47.968s-21.518 47.967-47.968 47.967zm0-79.768c-17.534 0-31.798 14.265-31.798 31.8 0 8.494 3.307 16.479 9.314 22.484 6.006 6.007 13.99 9.315 22.484 9.315 17.535 0 31.8-14.265 31.8-31.799 0-17.535-14.265-31.8-31.8-31.8zM469.907 99.816a8.082 8.082 0 0 0 8.084 8.084h25.924a8.082 8.082 0 0 0 8.084-8.084 8.082 8.082 0 0 0-8.084-8.084h-25.924a8.084 8.084 0 0 0-8.084 8.084zM320.453 107.901h25.924a8.082 8.082 0 0 0 8.084-8.084 8.082 8.082 0 0 0-8.084-8.084h-25.924a8.082 8.082 0 0 0-8.084 8.084 8.082 8.082 0 0 0 8.084 8.084zM458.717 61.367a8.06 8.06 0 0 0 5.717-2.368l18.331-18.332a8.082 8.082 0 0 0-.001-11.432 8.083 8.083 0 0 0-11.432.001l-18.331 18.332a8.082 8.082 0 0 0 5.716 13.799zM359.934 140.632l-18.331 18.333a8.082 8.082 0 0 0 5.717 13.799 8.06 8.06 0 0 0 5.717-2.368l18.331-18.333a8.085 8.085 0 0 0-11.434-11.431zM412.183 42.093a8.083 8.083 0 0 0 8.085-8.083l.002-25.924a8.083 8.083 0 0 0-8.083-8.085h-.001a8.083 8.083 0 0 0-8.084 8.083l-.002 25.924a8.083 8.083 0 0 0 8.083 8.085zM359.934 58.999a8.06 8.06 0 0 0 5.717 2.368 8.082 8.082 0 0 0 5.717-13.799l-18.331-18.332a8.083 8.083 0 0 0-11.432-.001 8.082 8.082 0 0 0-.001 11.432l18.33 18.332zM471.332 170.397a8.06 8.06 0 0 0 5.717 2.368 8.082 8.082 0 0 0 5.717-13.799l-18.331-18.332a8.085 8.085 0 0 0-11.434 11.431l18.331 18.332zM246.816 287.615a8.082 8.082 0 0 0 8.084 8.084h63.231a8.082 8.082 0 0 0 8.084-8.084 8.082 8.082 0 0 0-8.084-8.084H254.9a8.084 8.084 0 0 0-8.084 8.084zM483.195 177.895h-62.929v-12.272c0-4.466-3.618-8.084-8.084-8.084s-8.084 3.618-8.084 8.084v12.272h-18.097c-15.883 0-28.805 12.922-28.805 28.806 0 .813.035 1.623.103 2.43H325c-15.884 0-28.807 12.922-28.807 28.806s12.922 28.805 28.807 28.805h59.125a8.082 8.082 0 0 0 8.084-8.084 8.082 8.082 0 0 0-8.084-8.084H325c-6.969 0-12.638-5.669-12.638-12.636 0-6.969 5.67-12.637 12.638-12.637h43.166a8.081 8.081 0 0 0 6.957-12.2 12.416 12.416 0 0 1-1.76-6.398c0-6.969 5.669-12.637 12.636-12.637h97.194c6.967 0 12.636 5.669 12.636 12.637 0 6.969-5.669 12.637-12.636 12.637h-43.169a8.081 8.081 0 0 0-6.957 12.2 12.412 12.412 0 0 1 1.762 6.398c0 6.968-5.669 12.636-12.636 12.636h-12.2a8.082 8.082 0 0 0-8.084 8.084 8.082 8.082 0 0 0 8.084 8.084h12.2c15.883 0 28.805-12.921 28.805-28.805 0-.813-.035-1.623-.105-2.43h32.3c15.883 0 28.805-12.922 28.805-28.806s-12.919-28.806-28.803-28.806z"/><path style="fill:#231f20" d="M507.517 391.901c-8.479-4.218-17.552-6.356-26.968-6.356-3.436 0-6.847.289-10.208.86-2.668-20.374-12.019-39.185-26.902-53.766-17.331-16.98-40.243-26.332-64.512-26.332-40.162 0-75.071 25.778-87.452 62.903-12.455-8.548-27.182-13.148-42.582-13.148-36.541 0-67.551 26.378-74.145 61.496a45.906 45.906 0 0 0-3.205-.114c-2.817 0-5.571.262-8.252.736v-60.02l34.988-27.027a8.086 8.086 0 0 0-9.885-12.797l-25.104 19.392v-53.761a87.286 87.286 0 0 0 42.939-25.696c40.823-11.311 69.116-48.363 69.116-90.983 0-33.994-17.843-64.738-46.965-81.634.499-3.503.75-7.032.75-10.55C229.132 33.691 195.442 0 154.031 0c-41.408 0-75.097 33.691-75.097 75.101 0 1.888.073 3.789.22 5.691-11.031 2.625-21.079 8.477-28.888 16.941-9.8 10.622-15.197 24.436-15.197 38.898 0 17.508 7.899 33.82 21.391 44.681a87.268 87.268 0 0 0-1.894 18.071c0 48.127 39.153 87.283 87.28 87.283 1.767 0 3.526-.069 5.277-.175v122.702a60.045 60.045 0 0 0-46.071-21.446c-2.016 0-4.016.105-5.998.3v-63.313a8.082 8.082 0 0 0-8.084-8.084 8.082 8.082 0 0 0-8.084 8.084v67.225a59.723 59.723 0 0 0-9.839 4.987c-9.464-25.273-32.658-43.986-60.029-47.168A8.085 8.085 0 0 0 0 357.808v146.108A8.082 8.082 0 0 0 8.084 512h152.783c1.674 0 3.372-.12 5.066-.345 1.842.219 3.712.345 5.612.345h332.371a8.082 8.082 0 0 0 8.084-8.084V399.139a8.085 8.085 0 0 0-4.483-7.238zm-365.67-121.404c-39.212 0-71.112-31.901-71.112-71.114 0-6.49.891-12.958 2.652-19.229a8.087 8.087 0 0 0-3.369-8.957c-11.759-7.665-18.779-20.588-18.779-34.566 0-21.2 16.535-39.242 37.642-41.074a8.08 8.08 0 0 0 5.738-3.164 8.08 8.08 0 0 0 1.509-6.376A59.573 59.573 0 0 1 95.104 75.1c0-32.495 26.435-58.932 58.928-58.932 32.495 0 58.933 26.436 58.933 58.933a59.07 59.07 0 0 1-1.477 13.082 8.083 8.083 0 0 0 4.277 9.027c26.779 13.349 43.414 40.2 43.414 70.076 0 36.031-24.392 67.258-59.317 75.941a8.083 8.083 0 0 0-4.17 2.564 71.174 71.174 0 0 1-32.399 21.366V145.742a8.082 8.082 0 0 0-8.084-8.084 8.082 8.082 0 0 0-8.084 8.084v74.391l-35.63-27.926a8.084 8.084 0 0 0-9.975 12.724l45.605 35.744v29.599c-1.752.133-3.51.223-5.278.223zM16.168 367.65c20.484 5.906 36.526 23.19 40.385 44.587a8.083 8.083 0 0 0 13.626 4.326c8.289-8.156 19.253-12.649 30.873-12.649a43.906 43.906 0 0 1 39.674 24.956 46.966 46.966 0 0 0-14.303 21.725l-.063.204a46.422 46.422 0 0 0-.556 1.955c-.045.171-.085.345-.128.516-.143.577-.28 1.154-.402 1.738-.056.268-.103.54-.155.811-.096.506-.193 1.011-.273 1.522-.058.37-.102.744-.152 1.116-.057.429-.12.857-.164 1.288-.052.492-.084.988-.121 1.483-.024.327-.057.651-.074.98a45.878 45.878 0 0 0-.01 4.804c.019.4.055.794.084 1.191.025.34.045.68.078 1.018.053.557.123 1.11.195 1.661.02.153.037.306.058.459 1.31 9.303 5.336 17.74 11.249 24.49H16.168V367.65zm479.664 128.182H171.545c-1.548 0-3.068-.117-4.555-.336-.313-.045-.623-.102-.932-.157-.188-.033-.375-.064-.562-.1a29.495 29.495 0 0 1-.806-.176c-.217-.049-.434-.097-.649-.15a46.543 46.543 0 0 1-1.41-.387 34.463 34.463 0 0 1-1.355-.442 29.41 29.41 0 0 1-1.291-.488 30.285 30.285 0 0 1-.944-.397c-.087-.038-.172-.079-.259-.117-9.186-4.166-15.944-12.679-17.821-22.703-.003-.019-.006-.039-.011-.058a29.61 29.61 0 0 1-.206-1.262c-.016-.116-.03-.235-.045-.351a32.17 32.17 0 0 1-.121-1.036c-.022-.232-.037-.466-.053-.698-.018-.249-.04-.498-.052-.749a31.162 31.162 0 0 1-.038-1.501c0-.61.023-1.216.057-1.819.012-.198.03-.395.045-.593a31.794 31.794 0 0 1 .203-1.906c.05-.358.108-.713.169-1.067.043-.248.084-.497.133-.743.067-.333.146-.662.222-.991a31.33 31.33 0 0 1 .448-1.697c.047-.162.092-.326.141-.486.124-.393.258-.783.397-1.168l.127-.354c.157-.424.322-.844.498-1.259l.02-.046a31.23 31.23 0 0 1 6.614-9.811l.089-.089c.322-.321.652-.636.988-.943.081-.073.164-.144.246-.217a32.16 32.16 0 0 1 1.445-1.212c.248-.195.494-.393.748-.582.202-.15.407-.291.612-.437a31.276 31.276 0 0 1 2.962-1.859 8.053 8.053 0 0 0 3.792-1.758 30.952 30.952 0 0 1 11.15-2.074c2.626 0 5.336.371 8.058 1.101a8.083 8.083 0 0 0 10.159-7.263c2.095-30.965 28.069-55.219 59.132-55.219 15.652 0 30.42 6.05 41.584 17.038a8.084 8.084 0 0 0 13.626-4.326c6.532-36.196 37.999-62.466 74.823-62.466 41 0 75.1 33.346 76.015 74.333a8.081 8.081 0 0 0 10.773 7.443 44.44 44.44 0 0 1 14.834-2.537 43.85 43.85 0 0 1 15.282 2.725l.005 91.39z"/><g style="opacity:.1"><path style="fill:#231f20" d="M167.447 271.575c-43.737 0-79.196-35.458-79.196-79.198 0-4.583.399-9.072 1.151-13.438l.001-.005c.756-6.699-1.835-10.315-3.298-11.791-.262-.223-.513-.46-.771-.689a7.21 7.21 0 0 0-.167-.122l.023-.009c-10.074-9.028-16.436-22.108-16.436-36.699 0-23.329 16.195-42.848 37.951-47.989h.002c.344-.082.694-.15 1.042-.224 1.907-.565 5.701-2.499 5.019-8.904a9.694 9.694 0 0 1-.059-1.058 65.37 65.37 0 0 1-.089-3.353c0-26.157 14.994-48.797 36.848-59.838-34.879 2.351-62.448 31.37-62.448 66.846 0 4.24.411 8.38 1.162 12.402-25.225 2.189-45.027 23.332-45.027 49.128 0 17.321 8.943 32.535 22.448 41.339a79.153 79.153 0 0 0-2.951 21.412c0 43.739 35.458 79.198 79.196 79.198 11.952 0 23.277-2.653 33.431-7.397a80.438 80.438 0 0 1-7.832.389z"/></g></svg>
